<?xml version="1.0" encoding="UTF-8"?>
<!DOCTYPE svg PUBLIC "-//W3C//DTD SVG 1.1//EN" "http://www.w3.org/Graphics/SVG/1.1/DTD/svg11.dtd">
<!-- Creator: CorelDRAW -->
<svg xmlns="http://www.w3.org/2000/svg" xml:space="preserve" width="2in" height="1in" version="1.1" style="shape-rendering:geometricPrecision; text-rendering:geometricPrecision; image-rendering:optimizeQuality; fill-rule:evenodd; clip-rule:evenodd"
viewBox="0 0 2000 1000"
 xmlns:xlink="http://www.w3.org/1999/xlink"
 xmlns:xodm="http://www.corel.com/coreldraw/odm/2003">
 <defs>
  <style type="text/css">
   <![CDATA[
    .fil0 {fill:#FB0234}
    .fil4 {fill:#FC1E2A}
    .fil3 {fill:#FC461C}
    .fil1 {fill:#FE6F0C}
    .fil2 {fill:#FF9101}
   ]]>
  </style>
 </defs>
 <g id="Layer_x0020_1">
  <metadata id="CorelCorpID_0Corel-Layer"/>
  <g id="_2293742963184">
   <path class="fil0" d="M437.74 501.45c-20.8,-89.5 48.35,-99.25 71.85,-64.7 30.51,44.85 -6.76,90.7 -71.85,64.7zm76.71 34.83c-0.66,78.19 -70.75,31.37 -113.47,34.79l-14.86 35.09c196.39,79.67 175.45,-68.62 176.94,-225.33 -15.61,-0.15 -14.06,1.22 -26.04,2.76 -46.17,5.89 -123.49,-30.43 -146.65,55.82 -23.5,87.58 62.25,144.34 124.07,96.88z"/>
   <path class="fil0" d="M954.97 512.3c-36.74,-0.36 -61.23,-9.6 -58.49,-48.61 2.42,-34.38 22.43,-41.96 58.49,-42.39 34.46,34.02 34.57,56.87 0,91zm-103.07 -162.96l-0.3 199.13 43.39 -0.69c1.78,-0.01 4.24,-0.25 5.96,-0.17 7.7,0.34 95.94,36.89 121.21,-53.3 10.21,-36.46 0.13,-149.95 -126.63,-102.51l-1.27 -83.48c-46.39,0.74 -42.37,-2.87 -42.37,41.02z"/>
   <path class="fil1" d="M1626.46 427.17c20.03,46.52 20.44,85.71 -45.55,84.82 -51.19,-46.22 -28.76,-101.92 45.55,-84.82zm58.18 124.23l0.72 -170.14c-22.01,-1.06 -19.19,1.65 -33.01,3.04 -24.41,2.45 -2.48,3.76 -24.36,1.2 -14.57,-1.7 -22.22,-11.79 -52.73,-6.58 -84.62,14.44 -88.65,151.23 -6.54,173.91 47.65,13.16 24.81,-9.61 76.31,-5.57 12.76,1 13.84,5.47 39.6,4.14z"/>
   <path class="fil0" d="M725.33 423.87c44.82,-20.92 88.86,52.94 36.98,82.71 -57.57,33.04 -87.15,-59.29 -36.98,-82.71zm-5.16 -42.53c-117.8,29.81 -68.63,209.61 51.28,169.45 101,-33.83 62.31,-198.2 -51.28,-169.45z"/>
   <path class="fil2" d="M1775.12 451.53c-2.29,-0.82 -18.71,-5.28 -21.59,-7.3 -2.81,6.21 -4.88,10.89 -8.56,17.74 -0.58,1.08 -2.96,6.52 -3.42,5.24 -0.44,-1.26 -2.35,3.38 -3.52,5.07 62.64,146.65 12.35,81.33 -36.07,125.12 12.69,42.39 47.56,39.65 75.24,18.81 16.93,-12.75 28.58,-47.2 39.24,-74.37 21.1,-53.72 47.02,-104.56 60.42,-161.24 -71.09,0.24 -58.68,42.63 -85.65,105.13l-16.11 -34.21z"/>
   <path class="fil3" d="M1347.44 415.7c15.9,25.06 47.48,65.15 6.94,90.89 -45.28,28.75 -64.18,-20.06 -62.9,-61.3 -1.96,2.42 -4.02,5.52 -5.4,7.63 -30.65,46.83 -26.96,34.42 -32.1,69.8 -1.33,9.15 -4.48,87.71 -6.26,87.74 17.35,17.7 -21.54,15.46 37.1,15.46l6.33 -82.69c126.07,49.5 176.16,-106.98 79.11,-158.59l-22.83 31.07z"/>
   <path class="fil4" d="M1151.11 422.56c35.29,26.97 29.25,42.92 13.3,83.59 -53.52,11.32 -66.24,7.24 -72.83,-52.34 -15.35,15.28 -9.17,0.26 -21.09,31.12 -6.37,16.49 -4.58,16.53 -8.51,34.64 19.19,19.81 32.83,34.78 66.81,36.54 106.11,5.46 134.44,-141.1 33.88,-171.54 -3.9,18.84 -4.87,14.8 -11.54,37.99z"/>
   <path class="fil3" d="M1441.08 384.15l-1.05 122.71c0.9,39.78 -11.29,46.52 47.13,46.61 0.26,-71.83 5.3,-177.74 -3.46,-245.4 -62.59,-0.56 -42.8,4.56 -42.62,76.08z"/>
   <path class="fil0" d="M586.87 556.01c64.17,-8.02 45.34,-53.95 45.25,-119.64 -0.19,-123.8 13.41,-119.62 -45.02,-131.7l-0.23 251.34z"/>
   <path class="fil4" d="M1247.73 610.45c1.77,-0.03 4.93,-78.59 6.26,-87.74 5.14,-35.38 1.44,-22.96 32.1,-69.8 1.38,-2.11 3.44,-5.2 5.4,-7.63 27.07,-18.97 13.67,-19.21 55.96,-29.59l22.83 -31.07c-63.54,-21.11 -30.23,8.31 -95.87,-1.6 -15,-2.27 -10.4,-3.18 -30.18,-3.87l3.5 231.3z"/>
   <path class="fil0" d="M1061.97 519.57c3.93,-18.11 2.15,-18.15 8.51,-34.64 11.93,-30.87 5.75,-15.85 21.09,-31.12 14.7,-31.16 22.28,-33.92 59.54,-31.26 6.68,-23.19 7.64,-19.15 11.54,-37.99 -71.18,-36.46 -144.85,49.17 -100.69,135.01z"/>
   <path class="fil1" d="M1738.04 472.28c1.17,-1.69 3.07,-6.33 3.52,-5.07 0.45,1.28 2.83,-4.16 3.42,-5.24 3.68,-6.85 5.75,-11.53 8.56,-17.74 2.87,2.02 19.3,6.47 21.59,7.3l-26.13 -69.69 -48.07 -2.37 37.12 92.82z"/>
  </g>
 </g>
</svg>
