<?xml version="1.0" encoding="UTF-8"?>
<!DOCTYPE svg PUBLIC "-//W3C//DTD SVG 1.1//EN" "http://www.w3.org/Graphics/SVG/1.1/DTD/svg11.dtd">
<!-- Creator: CorelDRAW -->
<svg xmlns="http://www.w3.org/2000/svg" xml:space="preserve" width="2in" height="1in" version="1.1" style="shape-rendering:geometricPrecision; text-rendering:geometricPrecision; image-rendering:optimizeQuality; fill-rule:evenodd; clip-rule:evenodd"
viewBox="0 0 2000 1000"
 xmlns:xlink="http://www.w3.org/1999/xlink"
 xmlns:xodm="http://www.corel.com/coreldraw/odm/2003">
 <defs>
  <style type="text/css">
   <![CDATA[
    .fil0 {fill:#CC071D}
   ]]>
  </style>
 </defs>
 <g id="Layer_x0020_1">
  <metadata id="CorelCorpID_0Corel-Layer"/>
  <g id="_2293741213680">
   <path class="fil0" d="M1445.19 270.13c0.11,-0.11 0.32,0.17 0.33,0.33l0 0c-0.02,-0.02 -0.44,-0.22 -0.33,-0.33zm174.09 -211.11l0 10.43c-0.88,11.69 -4.2,23.76 -5.69,29.67 -2.54,10.13 -4.9,21.48 -7.46,31.95 -10.57,43.15 -19.6,86.87 -28.35,130.41l-132.68 658.95c-3.96,19.78 -4.3,51.52 -33.43,40.19 -12.55,-4.88 -22.91,-24.77 -40.45,-38.39 -12.13,-9.42 -37.71,-23.3 -37.71,-41.13 0,-11.35 3.69,-28.85 5.63,-40.35 2.12,-12.52 4.06,-26.58 6.1,-38.79l26.74 -152.83c4.16,-25.04 9.93,-50.4 14.09,-75.7 7.24,-44.08 20.29,-107.49 29.11,-151.56l30.02 -149.55 -103.72 225.85c-21.97,51.44 -44.3,103.03 -65.06,155.02 -10.33,25.88 -20.66,51.66 -31.28,78.21 -7.39,18.48 -49.24,131.15 -53.93,137.68 -20.88,29.03 -36.1,-4.93 -46.48,-18.19 -12.94,-16.52 -29.1,-29.52 -40.28,-47.31 -3.89,-6.2 -6.82,-13.54 -8.24,-21.31 -4.76,-25.98 -6.86,-97.93 -3.73,-125.79 0.48,-4.3 0,-8.69 0.13,-13.02 0.16,-5.43 1.02,-5.46 1.16,-10.88 0.8,-30.69 7.81,-108.75 11.7,-139.4 4.89,-38.53 7.11,-76.94 11.09,-114.82l3.5 -46.87c0.09,-9.61 1.05,-14.96 1.05,-24.13 -0.15,0.22 -0.32,0.54 -0.4,0.69 -0.08,0.15 -0.3,0.51 -0.4,0.69l-38.75 115.63c-3.98,13.01 -7.85,25.81 -12.32,39.14 -13.42,39.97 -23.73,79.44 -37.23,119.35 -4.54,13.42 -7.58,25.88 -12.03,39.43 -16.29,49.59 -76.59,262.87 -84.83,278.69 -16.23,31.12 -52.73,31.81 -52.73,-5.65 0,-17.15 25.18,-99.22 31.52,-121.78 19.37,-68.99 39.83,-137.71 61.42,-205.74 10.82,-34.07 20.4,-67.93 31.74,-101.84 1.65,-4.94 3.15,-9.09 4.52,-14.09 6.46,-23.63 19.62,-61.59 27.79,-86.09 6.47,-19.4 12.08,-37.35 18.61,-56.94 17.02,-50.98 49.66,-149.14 69.48,-197.69 11.77,-28.84 42.96,-31.76 69.81,-42.97l26.57 -11.75c17.3,-6.97 56,-17.8 56,14.39 0,27.88 -2.6,56.84 -5.29,82.31l-17.76 144.28c-3.2,23.13 -7.25,46.51 -9.88,70.04 -5.07,45.31 -20.43,136.62 -21.81,180.76 -0.19,6.05 -0.57,13.11 -1.26,19.54 -3.11,28.91 -4.22,65.12 -4.22,95.42l9.39 -22.37c20.76,-51.75 40.41,-104.04 62.91,-154.98 6.34,-14.35 12.66,-28.94 18.74,-43.67l97.75 -214.3c3.23,-7.83 7.36,-14.06 10.33,-21.42 3.03,-7.48 6.61,-13.71 10.02,-20.63 6.48,-13.16 14.87,-28.88 20.33,-42.09 6.18,-14.97 13.39,-27.73 20.89,-41.52 16.15,-29.7 27.02,-31.52 54.69,-39.47 24.54,-7.05 39.19,-22.56 77.07,-22.56 12.01,0 16.54,8.28 17.52,18.82z"/>
   <path class="fil0" d="M568.16 560.28zm0 0zm303.49 -522.28l4.85 0c25.92,2.06 12.74,38.35 6.69,53.34 -7.92,19.63 -14.82,39.34 -22.53,58.5 -15.66,38.91 -30,77.29 -45.68,116.37l-22.78 58.25c-3.63,10.22 -7.33,19.02 -11.31,29.2 -3.71,9.5 -8.96,19.31 -11.28,29.24 24.12,0 71.43,-13.33 83.9,5.89 3.49,5.39 3.43,14.45 1.15,21.13 -4.44,13.06 -13.17,17.91 -23.59,25.68 -24.39,18.19 -36.51,48.97 -57.22,65.41 -14.01,11.12 -31.25,19.36 -49.56,23.8 -11.05,2.68 -9.57,0.57 -13.34,10.75 -4.6,12.42 -9.06,24.09 -13.43,35.84 -2.38,6.41 -4.57,12.01 -6.86,18.32 -15.2,41.94 -31.83,83.24 -45.99,125.91l-25.72 72.82c-6.57,18.78 -53.97,159.01 -56.97,164.21 -3.13,5.41 -6.86,8.67 -14.17,10.01 -11.33,2.07 -17.27,-6.11 -22.82,-13.22 -1.89,-2.43 -3.41,-4.42 -5.33,-6.71 -6.98,-8.3 -17.29,-16.72 -25.81,-23.46 -7.11,-5.61 -19.45,-17.33 -23.89,-25.38 -7.21,-13.07 -2.76,-24.07 0.98,-37.76 13.92,-50.85 30.48,-101.48 46.72,-150.37 3.24,-9.76 50.1,-140.59 50.5,-145.48 -5.19,0 -10.67,1.7 -15.76,2.85l-143.67 31.52c-6.32,1.42 -9.78,0.33 -12.12,5.4 -6.1,13.2 -40.6,108.41 -47.57,127.62l-46.54 128.65c-7.7,23.33 -15.88,55.45 -39.81,66.4 -9.13,4.18 -20.97,2.37 -25.89,-4.82 -11.71,-17.13 -2.25,-38.27 3.28,-55.01l73.88 -206.43c3.29,-8.83 5.91,-16.63 9.39,-25.65 1.72,-4.46 3.4,-8.78 4.85,-12.67 1.66,-4.47 3.5,-8.48 4.54,-12.98 -14.57,0 -27.83,-7.89 -36.15,-14.21 -9.37,-7.12 -15.98,-16.46 -23.82,-25.45 -12.31,-14.13 -10.43,-14.22 -28.25,-21.02 -12.7,-4.84 -20.14,-11.37 -25.24,-24.03 -0.83,-2.07 -1.32,-4.04 -1.49,-5.9l0 -3c0.38,-3.89 2.3,-7.12 5.41,-9.38 13.64,-9.92 73.86,-24.84 92.9,-29.73l59.14 -15.32c6.17,-1.54 14.53,-1.31 17.35,-7.83l97.84 -247.06c9.53,-23.8 18.83,-47.17 28.61,-71.03 7.82,-19.08 18.37,-52.14 32.41,-66.13 26.05,-25.94 55.98,-17.94 47.82,17.17 -2.98,12.81 -98.96,250.76 -119.17,301.28l-13.89 35.38c-1.99,5.53 -5.08,11.8 -6.44,17.65l136.08 -27.06c6.62,-1.09 10.96,-2.02 17.68,-3.13 4.93,-0.81 12.49,-0.5 15.19,-4.51 1.06,-1.57 4.86,-12.27 5.83,-14.98 1.89,-5.31 3.51,-9 5.57,-14.14 7.82,-19.56 14.7,-38.82 23,-58.02l23.46 -57.57c7.52,-18.85 16.05,-38.52 23.78,-57.25 15.86,-38.42 32.44,-75.53 48.47,-113.58 3.33,-7.9 12.71,-17.42 21.72,-19.89 29.58,-8.09 30.62,-9.49 60.93,-20.09 7.85,-2.74 20.47,-7.6 30.18,-8.33z"/>
   <path class="fil0" d="M765.24 761.75c-15.76,0 -2.78,-22.63 0.64,-27.83 2.92,-4.44 8.59,-14.63 13.59,-15.96 0.33,3.96 8.17,27.14 9.85,30.66 -6.46,3.42 -15.18,13.14 -24.09,13.14zm26.28 -125.92c-3.96,-8.25 -9.85,-35.04 9.85,-35.04 10.57,0 11.51,20.73 -9.85,35.04zm-40.51 -19.71c0,19.3 10.95,44 10.95,50.37 0,1.1 -7.62,8.18 -9.04,9.58l-27.91 31.21c-9.65,10.32 -23.27,35.04 -23.27,54.47 0,22.86 3.19,40.45 22.97,54.77 2.58,1.87 5.05,3.13 8.39,4.75 17.91,8.67 35.8,4.87 52.22,-3.3l17.89 -11.67c3.01,-2.62 1.88,-2.98 5.82,-4.03 2.19,26.3 37.23,32.8 37.23,6.57 0,-6.42 -5.02,-18.94 -7.2,-24.55 -6.88,-17.72 -1.55,-9.7 16.33,-39.69 6.04,-10.13 12.65,-26.1 4.08,-36.56 -13.93,-17 -37.57,10.46 -41.67,13.2l-10.32 -31.34c-3.06,-8.65 -0.61,-7.92 3.92,-13.39l9.54 -12.35c17.75,-23.72 44.95,-58.67 15.78,-86.65 -29.04,-27.87 -85.7,-9.03 -85.7,38.63z"/>
  </g>
 </g>
</svg>
