<?xml version="1.0" encoding="UTF-8"?>
<!DOCTYPE svg PUBLIC "-//W3C//DTD SVG 1.1//EN" "http://www.w3.org/Graphics/SVG/1.1/DTD/svg11.dtd">
<!-- Creator: CorelDRAW -->
<svg xmlns="http://www.w3.org/2000/svg" xml:space="preserve" width="2in" height="1in" version="1.1" style="shape-rendering:geometricPrecision; text-rendering:geometricPrecision; image-rendering:optimizeQuality; fill-rule:evenodd; clip-rule:evenodd"
viewBox="0 0 2000 1000"
 xmlns:xlink="http://www.w3.org/1999/xlink"
 xmlns:xodm="http://www.corel.com/coreldraw/odm/2003">
 <defs>
  <style type="text/css">
   <![CDATA[
    .fil0 {fill:#FF4C00}
   ]]>
  </style>
 </defs>
 <g id="Layer_x0020_1">
  <metadata id="CorelCorpID_0Corel-Layer"/>
  <g id="_2293741252848">
   <path class="fil0" d="M1010.08 389.01c9.72,-7.34 21.2,-18.2 31.78,-23.04l-37.5 94.32 -17.28 -40.31c-4.24,2.85 -8,6.3 -11.6,9.8 3.94,14.24 16.08,32.03 19.04,46.65l-150.35 0c2.22,-15.09 15.62,-31.88 18.6,-46.7l-10.01 -8.95c-7.88,7.73 -13.99,29.09 -21.14,40.68l-33.45 -94.74c13.49,5.66 107.66,88.33 118.71,93.49l93.21 -71.19zm-167.35 101.78c34.6,0 138.91,1.52 165.96,-0.85 10.13,-16.04 22.25,-55.56 30.21,-76.13 5.7,-14.72 28.09,-66.28 25.42,-79.17 -12.56,-2.85 -24.44,11.13 -39.72,22.8 -15.63,11.94 -99.62,80.59 -107.74,84.38l-132.25 -106.28c-24.06,-12.4 -4.83,27.89 -2.31,34.66 5.35,14.39 10.77,29.42 16.46,43.66 5.43,13.59 11.39,29.73 16.26,43.8 9.26,26.8 8.73,33.13 27.71,33.13z"/>
   <path class="fil0" d="M643.22 632.84l21.37 13.98 22.44 -13.48 0.06 43.35 18.77 -0.54 -0.16 -77.8c-9.21,2.14 -31.43,20.11 -41.42,25.49l-40.81 -25.85 0.06 78.9 18.72 0 0.96 -44.06z"/>
   <path class="fil0" d="M864.8 388.5l11.57 7.74 43.07 -94.98 40.98 94.57 11.19 -7.46c-0.55,-9.92 -29.14,-72.62 -36.53,-90.74 -12.13,-29.73 -18.1,-37.91 -32.98,-0.58 -4.3,10.78 -8.23,19.22 -12.53,29.56 -5.64,13.54 -23.15,50.42 -24.76,61.89z"/>
   <path class="fil0" d="M1082.74 633l22.54 13.36 22.08 -13.18 0.09 43.66 18.37 0.07 -0.76 -79.69 -39.85 25.93c-13.65,-4.39 -28.08,-21.48 -41.45,-24.81l0.06 78.43 18.35 -1.07 0.57 -42.7z"/>
   <path class="fil0" d="M847.6 614.8c9.43,-0.76 19.78,-1.51 26.44,2.12 6.45,20.8 -9.53,17.91 -26.71,16.77l0.28 -18.89zm29.61 35.64c6.47,-7 11.49,-6.05 14.57,-19.03 10.05,-42.27 -44.68,-34.77 -63.35,-34.77l-0.01 80.27 18.66 0 0.05 -24.77c11.92,-1.15 11.83,1.24 23.92,24.55l21.37 -0.27 -15.22 -25.98z"/>
   <path class="fil0" d="M506.78 614.54c8.78,-0.23 31.25,-3.8 28.28,11.19 -2.37,11.99 -18.06,8.37 -28.61,8.16l0.32 -19.35zm29.95 35.89c0,-0.01 29.44,-22.24 8.33,-45.04 -11.99,-12.96 -37.34,-8.76 -57.15,-8.77l-0.04 80.27 18.32 0 0.04 -25.13c11.89,-0.26 10.23,1.58 15.12,9.47 3.5,5.65 6.13,9.05 8.75,15.55l20.85 0.09c-1.99,-6.8 -10.72,-19.77 -14.23,-26.44z"/>
   <path class="fil0" d="M299.35 632.93l22.41 13.51 22.26 -13.18 0.09 43.51 18.38 0.14 -0.43 -79.01c-14.98,7.26 -25.93,18.27 -40.3,25.33 -15.54,-6.38 -26.73,-18.5 -41.15,-25.71l0.32 79.11 17.91 -0.76 0.52 -42.94z"/>
   <path class="fil0" d="M1314.14 632.23c6.46,-7.89 29.21,-26.29 31.54,-35.58 -23.77,-0.07 -21.93,-5.39 -53.73,30.87l-0.52 -30.31 -18.65 0 0.11 79.7 18.6 0c0.3,-18.74 -3.09,-19.35 8.09,-28.7 9.48,5.89 19.22,24.82 30.06,28.7l22.23 -0.3c-5.53,-11.46 -33.94,-33.39 -37.73,-44.37z"/>
   <polygon class="fil0" points="1393.06,614.68 1428.18,614.41 1427.41,596.6 1374.29,597.05 1374.28,676.79 1428.52,676.89 1427.1,659.33 1392.88,659.33 1392.78,645.62 1422.63,644.99 1422.7,628.39 1392.96,627.15 "/>
   <path class="fil0" d="M748.88 676.87c2.77,-8.43 14.28,-32.88 20.24,-38.24l18.69 38.3 21.11 -0.13c-4.24,-12.8 -33.11,-68.88 -40.33,-77.35l-7.08 9.93c-2.07,3.94 -2.98,5.9 -4.64,9.3 -7.93,16.22 -25.2,44.8 -29.13,58.23l21.14 -0.03z"/>
   <path class="fil0" d="M1191.23 676.58c3.08,-7.62 6.07,-12.74 9.83,-20.45 3.02,-6.19 5.86,-13.24 10.71,-17.96 2.89,6.96 6.56,13.01 9.98,19.91 9.97,20.13 5.52,20.33 30.26,18.13l-40.23 -78.21c-7.09,6.24 -37.04,66.37 -41.81,78.39l21.26 0.19z"/>
   <path class="fil0" d="M407.94 676.7c2.51,-8.02 14.53,-33.48 20.02,-38 7.27,10.09 11.8,31.98 22.04,38.24l18.87 -0.69 -40.91 -77.73c-6.37,5.83 -35.43,65.23 -41.26,78.06l21.25 0.13z"/>
   <path class="fil0" d="M1001.03 638.7c6.16,5.75 14.91,27.6 20.03,37.97l20.89 0.22c-2.33,-8.42 -36.92,-74.52 -41.54,-78.69l-40.02 78.69 20.93 -0.26 19.7 -37.93z"/>
   <path class="fil0" d="M578.56 676.95l18.81 -1.09c0.88,-84.48 5.58,-80.08 -18.8,-79.02l-0.01 80.11z"/>
   <path class="fil0" d="M1528.02 631.56c15.52,0 34.03,-1.91 28.39,-22.91 -4.19,-15.58 -25.17,-12.25 -40.62,-12.25l0.88 51.38 10.89 -0.18 0.46 -16.04zm0.28 -12.69c-0.03,-2.49 -0.08,-7.45 -0.11,-9.94 -0.03,-2.48 -0.03,-2.48 2.12,-2.38 2.15,0.1 6.44,0.31 9.15,0.68 2.71,0.37 3.85,0.91 4.65,1.55 0.8,0.65 1.26,1.41 1.54,2.14 0.28,0.73 0.36,1.44 0.39,2.27 0.02,0.83 -0.01,1.78 -0.35,2.79 -0.34,1.02 -1,2.1 -2.3,3.06 -1.3,0.96 -3.25,1.78 -5.61,2.19 -2.36,0.41 -5.14,0.39 -6.79,0.35 -1.65,-0.04 -2.19,-0.1 -2.44,-0.13 -0.26,-0.04 -0.23,-0.04 -0.22,-0.06 0.01,-0.02 0,-0.03 -0.02,-2.52z"/>
   <polygon class="fil0" points="919.56,676.79 937.82,675.56 937.48,596.95 919.56,597.16 "/>
   <path class="fil0" d="M1456.83 596.94c-2.41,21.11 -3.75,50.96 21.09,50.27 22.73,-0.63 22.88,-29.48 19.53,-50.57l-9.19 0c-2.52,14.36 4.09,38.31 -10.54,39.08 -15.34,0.81 -9.8,-25.43 -11.03,-38.76l-9.87 -0.01z"/>
  </g>
 </g>
</svg>
