<?xml version="1.0" encoding="UTF-8"?>
<!DOCTYPE svg PUBLIC "-//W3C//DTD SVG 1.1//EN" "http://www.w3.org/Graphics/SVG/1.1/DTD/svg11.dtd">
<!-- Creator: CorelDRAW -->
<svg xmlns="http://www.w3.org/2000/svg" xml:space="preserve" width="2in" height="1in" version="1.1" style="shape-rendering:geometricPrecision; text-rendering:geometricPrecision; image-rendering:optimizeQuality; fill-rule:evenodd; clip-rule:evenodd"
viewBox="0 0 2000 1000"
 xmlns:xlink="http://www.w3.org/1999/xlink"
 xmlns:xodm="http://www.corel.com/coreldraw/odm/2003">
 <defs>
  <style type="text/css">
   <![CDATA[
    .fil0 {fill:black}
   ]]>
  </style>
 </defs>
 <g id="Layer_x0020_1">
  <metadata id="CorelCorpID_0Corel-Layer"/>
  <g id="_2293733666336">
   <path class="fil0" d="M282.91 553.03c0,17.46 38.63,23.85 52.94,4.76 4.74,-6.33 6.37,-22.93 7.92,-31.5l23.77 -135c1.75,-10.53 3.08,-22.94 8.87,-30.55 13.06,-17.15 48.85,-22.66 48.85,10.53 0,7.52 -26.01,149.53 -28.33,163.28 -1.5,8.89 -4.93,18.92 -0.38,25.27 9.81,13.7 40.09,12.52 50.82,-2.2 5.42,-7.43 27.84,-146.73 31.07,-166.02 2.11,-12.59 2.52,-22.06 8.87,-30.55 16.33,-21.87 49.63,-16.06 49.63,5.83 0,9.06 -5.56,35.9 -7.37,46.29 -2.81,16.14 -5.42,30.66 -8.11,46.64l-12.36 69.76c-3.08,17.01 -8.98,29.19 4.82,35.52 19.36,8.89 42.28,5.33 48.24,-18.59 4.37,-17.54 19.77,-110.14 23.26,-131.13 7.04,-42.31 23.35,-82.8 -22.4,-112.9 -28.68,-18.87 -57.82,-12.83 -86.33,1.98 -4.55,2.37 -8.56,5.27 -13.12,7.68 -6.32,-9.44 -23.87,-18.65 -37.52,-20.51 -45.49,-6.18 -91.98,27.91 -106.87,64.44 -6.41,15.74 -7.2,29.56 -9.8,48.22 -4.93,35.29 -14.98,87.8 -22.17,123.45l-4.3 25.27z"/>
   <path class="fil0" d="M1051.55 513.61c-6.69,0 -16,-6.23 -19.11,-10.45 -6.55,-8.91 -4.59,-11.1 -2.49,-23.19l18.15 -102.29c1.72,-10.57 2.57,-14.32 9.17,-20.4 21.8,-20.11 46.83,-6.28 46.83,9.61 0,9.01 -15.24,90.4 -17.83,105.9 -2.41,14.45 -2.32,25.63 -16.42,33.95 -4.08,2.41 -12.69,6.87 -18.31,6.87zm65.7 -218.98c-5.13,-0.11 -7.85,-1.67 -12.67,-2.67 -9.91,-2.06 -17.37,-1.94 -27.41,-0.19 -32.38,5.67 -66.89,30.9 -78.97,61.19 -5.45,13.66 -8.46,35.39 -11.1,51.3l-14.09 77.89c-5.44,28.82 0.92,48.31 20.78,68.43 36.35,36.83 94.38,14.8 126.49,-19.7 19.5,-20.96 22.26,-57.35 27.33,-86.54 1.74,-10.02 33.15,-183.5 33.15,-193.5 0,-13.31 -32.1,-20.39 -47.29,-8.96 -10.42,7.84 -10.31,21.75 -13.76,37.7 -1.05,4.86 -2.46,9.97 -2.46,15.06z"/>
   <path class="fil0" d="M1240.97 513.61c-6.87,0 -16.05,-6.22 -19.44,-10.12 -6.38,-7.34 -4.05,-13.38 -2.32,-23.68l18.16 -102.28c3.18,-19.22 15.87,-30.35 35.35,-30.35 7.67,0 20.8,11.43 20.8,18.61 0,6.78 -5.19,35.24 -6.66,42.61l-11.32 64.23c-2.49,14.9 -2.19,26.43 -16.3,34.07 -3.56,1.93 -13.92,6.91 -18.27,6.91zm-81.02 -14.23c0,33.46 31.34,70.07 67.89,70.07 27.35,0 46.85,-9.65 64.6,-22.99 35.09,-26.39 33.55,-44.81 40.79,-81.84l18.33 -105.39c0,-29.06 -30.09,-67.89 -63.5,-67.89 -29.98,0 -45.81,5.08 -69.93,23.14 -31.57,23.64 -34.34,46.56 -40.36,81.18l-17.82 103.72z"/>
   <path class="fil0" d="M592.78 501.57c0,29.65 29.07,67.89 68.98,67.89 16.24,0 29.16,-3.65 42.35,-10.2 21.55,-10.7 39.56,-24.75 50,-46.35 5.12,-10.57 7.47,-24.98 9.77,-38.41 4.58,-26.64 9.94,-53.92 14.56,-81.79 2.03,-12.26 13.61,-73.27 13.61,-83.84 0,-25.02 -45.54,-22.42 -54.35,-1.79 -5.32,12.45 -27.87,175.17 -36.15,189.4 -3.01,5.18 -6.56,8.76 -11.35,11.65 -10.34,6.26 -22.6,7.77 -32.55,-0.26 -12.67,-10.24 -6.58,-23.52 -3.42,-42.28 1.56,-9.25 3.63,-19.38 5.17,-28.77l20.18 -113.4c2.52,-15.29 7.43,-24.35 -13.54,-30.89 -12.43,-3.87 -29.48,0.03 -35.88,9.93 -8.68,13.43 -14.85,65.82 -17.98,83.85 -2.18,12.52 -19.41,104.7 -19.41,115.27z"/>
   <path class="fil0" d="M772.34 553.03c0,17.24 38.81,25.8 53.23,1.77 4.44,-7.4 6.22,-22.16 7.78,-31.64l23.3 -132.18c2.48,-15.04 4.6,-31.36 18.94,-39.09 18.61,-10.04 39.1,-3.77 39.1,17.2 0,7.96 -5.46,35.74 -7.2,45.35 -2.63,14.54 -23.46,127.38 -23.46,139.69 0,14.08 32.75,24.43 50.06,4.08 5.73,-6.74 7.09,-15.5 8.76,-25.18l20.47 -115.3c1.92,-10.21 3.38,-18.74 5.3,-28.65 2.34,-12.09 4.09,-20.42 4.09,-34.23 0,-47.15 -65.01,-84.17 -118.48,-50.59 -18.96,11.91 -39.59,30.78 -46.61,53.03 -3.55,11.24 -28.2,152 -32.94,180.57 -0.74,4.46 -2.34,11.04 -2.34,15.17z"/>
   <path class="fil0" d="M640.95 648.29c16.77,0 12.41,10.98 9.22,30.03 -1.34,8.03 -4.15,35.03 -9.5,40.87 -4.25,4.65 -10.74,7.12 -16.84,3.17 -8.61,-5.56 -2.04,-23.63 0.68,-40.14 2.33,-14.1 3.07,-33.93 16.43,-33.93zm-49.27 70.07c0,18.03 13.92,32.85 35.04,32.85 19.2,0 38.82,-17.06 42.96,-32.59 3.54,-13.28 10.69,-53.48 10.69,-67.05 0,-16.63 -13.64,-30.66 -30.66,-30.66 -6.66,0 -7.98,1.09 -14.23,1.09 0.15,-6.52 2.19,-7.95 2.19,-19.71 0,-8.74 -21.73,-11.38 -26.11,2.36l-19.88 113.7z"/>
   <path class="fil0" d="M1070.16 672.38l-13.14 0c0.13,-5.78 1.96,-15.15 4.37,-18.62 2.63,-3.78 10.38,-7.52 15.52,-5.74 13.44,4.67 5.37,24.36 -6.75,24.36zm-48.18 45.99c0,17.22 15.37,32.85 29.56,32.85 13.59,0 24.22,-2.44 34.78,-12.3 29.41,-27.44 7.9,-45.61 -7.02,-33.3 -5.82,4.8 -5.93,18.22 -19,18.22 -14.33,0 -8.76,-17.45 -8.76,-24.09 17.15,0 26.53,0.65 41.63,-10.92 7.37,-5.65 13.24,-13.6 16.18,-23.24 3.58,-11.71 2.34,-22.15 -3.68,-30.93 -17.69,-25.78 -61.53,-13.44 -72.38,19.46 -1.21,3.67 -11.32,57.73 -11.32,64.23z"/>
   <path class="fil0" d="M865.41 672.38c0.23,-2.8 6.29,-25.18 17.52,-25.18 11.82,0 14.02,20.35 1.49,24.48 -5.2,1.72 -13.06,0.7 -19.01,0.7zm-32.85 44.89c0,37.28 41.72,43.33 63.8,21.09 4.09,-4.12 6.64,-6.26 9.54,-11.27 17.25,-29.85 -12.19,-31.52 -21.82,-14.16 -0.91,1.63 -4.4,11.99 -14.28,11.99 -13.96,0 -10,-21.2 -7.28,-23.7 2.65,-2.44 9.26,-1.19 13.81,-1.51 8.13,-0.58 16.91,-4.44 22.72,-7.94 34.14,-20.63 26.36,-70.85 -8.44,-70.85 -21.7,0 -40.91,11.92 -47.24,32.69 -2.37,7.78 -10.79,55.33 -10.79,63.66z"/>
   <path class="fil0" d="M727.45 672.38l-13.14 0c0,-6.82 0.07,-13.62 4.14,-18.85 6.05,-7.79 22.14,-9.9 22.14,4.62 0,6.52 -6.43,14.23 -13.14,14.23zm-48.18 45.99c0,26.35 29.41,47.28 64.15,20.35 6.3,-4.88 29.42,-36.78 1.54,-36.78 -7.14,0 -11.35,6.03 -13.88,11.3 -9.69,20.17 -30.12,12.95 -22.95,-9.81 2.87,-9.1 14.06,2.31 35.71,-10.28 39.85,-23.16 24.84,-72.24 -4.35,-72.24 -14.2,0 -21.74,1.67 -33.35,10.45 -19.58,14.81 -19.93,40.82 -24.69,69.48 -0.99,5.95 -2.19,10.54 -2.19,17.52z"/>
   <path class="fil0" d="M541.31 724.93c-9.26,0 -13.46,-19.22 -1.19,-24.18 4.29,-1.73 12.65,-1 18.7,-1 -0.41,4.96 -1.42,13.57 -3.7,17.11 -2.14,3.32 -9.28,8.07 -13.82,8.07zm-15.33 -54.74c7.83,0 12.84,-5.41 15.18,-11.1 6.58,-15.97 24.24,-14.86 24.24,-2.04 0,20.25 -3.87,14.81 -15.34,15.31 -15.12,0.67 -31.23,9.82 -38.69,22.63 -14.98,25.7 -5.67,56.22 27.75,56.22 19.3,0 38.43,-17.23 43.13,-32.42l11.61 -65.03c0,-16.67 -14.16,-32.85 -29.56,-32.85 -10.33,0 -16.64,0.86 -25.94,5.81 -11.88,6.33 -29.37,26.39 -22.15,38.93 1.94,3.37 4.64,4.53 9.76,4.53z"/>
   <path class="fil0" d="M1239.87 715.08c0,-7.35 4.36,-29.48 5.94,-37.86 3.43,-18.22 2.52,-28.93 18.15,-28.93 17.14,0 6.6,29.26 3.43,48.32 -1.55,9.31 -2.22,19.37 -8.44,24.41 -7.08,5.73 -19.08,4.23 -19.08,-5.94zm-27.37 3.29c0,10.98 2.87,16.74 10.1,23.85 20.5,20.15 57.32,4.62 67.53,-23.96 1.52,-4.26 2.37,-11.21 3.09,-15.53 2.31,-13.93 7.97,-39.77 7.97,-52.24 0,-14.28 -15.21,-29.56 -29.56,-29.56l-5.47 0c-19.07,0 -38.41,17.71 -42.73,32.82 -2.63,9.18 -4.15,20.75 -5.91,31.31 -1.52,9.09 -5.01,25.85 -5.01,33.32z"/>
   <path class="fil0" d="M419.78 716.18c0,22.13 12.91,35.04 35.04,35.04 18.29,0 42.7,-19.54 42.7,-37.23 0,-9.89 0.2,-10.95 -15.33,-10.95 -6.06,0 -16.52,21.9 -26.28,21.9 -15.45,0 -6.33,-27.64 -4.53,-38.47 3.02,-18.19 2.56,-32.04 13.09,-37.31 4.48,-2.24 8.82,-2.22 12.95,0.59 7.78,5.3 -1.31,20.44 14.62,20.44 28.02,0 18.68,-49.27 -14.24,-49.27 -13.31,0 -21.3,3 -31.15,10.45 -17.67,13.35 -18.11,30.8 -21.72,52.74 -1.28,7.82 -5.16,25.43 -5.16,32.07z"/>
   <path class="fil0" d="M765.77 718.37c0,9.36 3.69,17.79 9.39,23.46 3.76,3.74 7.78,6.08 12.98,7.82 9.64,3.22 35.66,6.27 35.66,-13.76 0,-9.41 -1.31,-11.75 -14.23,-12.05 -21.09,-0.48 -18.14,-5.01 -12.14,-35.13l9.81 -54.8c1.86,-11.06 4.52,-21.19 4.52,-31.61 0,-8.39 -20.53,-11.5 -26.15,2.32l-19.84 113.74z"/>
   <path class="fil0" d="M1141.33 742.45c0,8.26 6.59,8.76 13.14,8.76 15.04,0 14.85,-15.68 17.05,-28.94l10.19 -58.79c3.83,-19.22 13.65,-13.49 29.42,-16.56 11.6,-2.26 11.22,-12.33 11.22,-19.43 0,-10.11 -35.21,-9.78 -51.76,6.27 -9.98,9.69 -13.1,14.23 -15.83,30.16 -2.34,13.65 -4.72,26.06 -6.87,39.11 -1.12,6.79 -2.31,12.67 -3.44,19.56 -0.9,5.5 -3.13,14.11 -3.13,19.87z"/>
   <path class="fil0" d="M965.05 750.12c14.59,0 13.29,-8.52 17.21,-32.06 2.26,-13.57 4.72,-26.01 6.89,-39.1 2.39,-14.43 1.57,-26.91 15.25,-30.74 7.71,-2.16 28.54,3.8 28.54,-18.54 0,-14.13 -30.46,-8.81 -41.63,-3.31 -22.97,11.3 -24.3,26.66 -28.54,48.1l-11.04 64.56c-1.22,9.01 2.83,11.09 13.33,11.09z"/>
   <path class="fil0" d="M278.53 729.31c-5.26,0 -8.25,-3.65 -7.15,-10.28l5.74 -30.55c0.65,-3.14 0.54,-4.56 2.23,-6.53 3.33,-3.9 15.8,-5.55 14,6.19 -0.88,5.72 -1.81,10.61 -2.87,15.89 -1.91,9.58 -1.12,25.28 -11.95,25.28zm18.61 -67.89c-4.34,-0.36 -7.89,-3.1 -19.73,2.17 -8.49,3.78 -15.18,10.54 -17.52,19.7 -2.36,9.24 -8.64,40.46 -7.09,47.6 3.84,17.72 26.41,25.13 45.74,5.29 8.67,-8.9 11.54,-38.84 14.56,-55.52 5.76,-31.81 9.31,-36.77 -6.11,-36.77 -7.59,0 -8.61,14.93 -9.85,17.52z"/>
   <path class="fil0" d="M1113.96 751.21c18.39,0 16.86,-8.24 20.34,-26.74l16.57 -94.75c-0.17,-3.45 -0.97,-4.73 -4.65,-6.04 -24.09,-8.53 -23.14,10.1 -25.85,26.63l-14.07 80.09c-0.52,3.15 -1.42,6.09 -1.82,9.21 -0.81,6.37 3.18,11.59 9.48,11.59z"/>
   <path class="fil0" d="M914.68 743.55c0,10.34 21.81,11.09 26.21,-1.16l19.55 -111.68c-0.07,-12.36 -18.31,-12.55 -24.38,-3.74 -4.65,6.74 -15.89,83.13 -19.09,99.16 -1.18,5.88 -2.29,10.5 -2.29,17.42z"/>
   <path class="fil0" d="M336.56 729.31c-2.96,0 -3.02,-0.52 -5.48,-1.09 -2.54,-9.56 1.14,-18.96 2.98,-29.87 1.91,-11.27 3.64,-21.36 16.73,-18.31 2.41,10.06 -0.25,19.37 -2.46,30.39 -1.15,5.71 -2.34,18.88 -11.78,18.88zm-25.19 -3.28c0,20.55 26.34,32.68 47.38,9.05 6.76,-7.59 13.56,-51.2 11.63,-58.13 -7.5,-26.79 -43.42,-17.41 -50.98,4.54l-8.03 44.53z"/>
   <path class="fil0" d="M937.67 607.78c0,14.67 27.37,15.64 27.37,-5.48 0,-11.08 -27.37,-9.42 -27.37,5.48z"/>
   <path class="fil0" d="M1128.19 608.87c0,7.99 8.39,10.37 14.49,9.1 18.17,-3.79 16.48,-25.69 -1.84,-22.75 -7.97,1.28 -12.65,4.93 -12.65,13.65z"/>
  </g>
 </g>
</svg>
