<?xml version="1.0" encoding="UTF-8"?>
<!DOCTYPE svg PUBLIC "-//W3C//DTD SVG 1.1//EN" "http://www.w3.org/Graphics/SVG/1.1/DTD/svg11.dtd">
<!-- Creator: CorelDRAW -->
<svg xmlns="http://www.w3.org/2000/svg" xml:space="preserve" width="2in" height="1in" version="1.1" style="shape-rendering:geometricPrecision; text-rendering:geometricPrecision; image-rendering:optimizeQuality; fill-rule:evenodd; clip-rule:evenodd"
viewBox="0 0 2000 1000"
 xmlns:xlink="http://www.w3.org/1999/xlink"
 xmlns:xodm="http://www.corel.com/coreldraw/odm/2003">
 <defs>
  <style type="text/css">
   <![CDATA[
    .fil0 {fill:black}
   ]]>
  </style>
 </defs>
 <g id="Layer_x0020_1">
  <metadata id="CorelCorpID_0Corel-Layer"/>
  <g id="_2293733679248">
   <path class="fil0" d="M1114.91 562.59c0,-31.83 21.13,-61.32 53.65,-61.32 18.89,0 35.3,1.6 48.96,17.83 28.07,33.37 17.63,104.8 -44.57,104.8 -35.13,0 -58.03,-26.13 -58.03,-61.31zm51.34 -85.41l14.35 0c20.07,1.53 39.59,9.48 53.93,23.81 20.97,20.97 23.81,41.39 23.81,69.26 0,18.45 -12.76,45.39 -26.11,56.01 -15.74,12.53 -33.7,20.36 -52.85,21.73l-12.06 0c-9.72,-0.69 -19.68,-3.06 -29.76,-7.33 -10.79,-4.57 -16.94,-9.39 -24.57,-17.03 -7.35,-7.34 -12.58,-14.28 -17.02,-24.59 -6.28,-14.59 -7.35,-23.72 -7.35,-40.83 0,-22.94 12.11,-45.58 23.78,-57.24 14.36,-14.35 33.83,-22.26 53.84,-23.78z"/>
   <path class="fil0" d="M1368.94 556.02c-8.61,0 -12.05,1.19 -12.05,-3.28l0 -51.46c23.73,0 54.75,-1.66 54.75,29.56 0,21.57 -25.16,25.19 -42.7,25.19zm-38.32 84.31c0,5.4 8.63,3.29 22.99,3.29 2.52,0 3.28,-0.76 3.28,-3.29l0 -64.6c28.44,-1.73 20.1,-5.98 37.23,19.71 5,7.5 9.69,14.53 14.89,22.34 18.54,27.81 14.4,25.96 28.9,25.85 6.2,-0.05 12.42,-0.01 18.63,-0.01 -1.39,-5.96 -20.57,-30.8 -24.52,-36.8 -4.18,-6.33 -8.52,-12.06 -12.7,-17.96 -2.56,-3.6 -11.12,-15.15 -12.05,-18.61 23.57,-12.47 26.28,-20.8 26.28,-44.89 0,-13.66 -8.54,-27.55 -17.04,-33.33 -20.83,-14.17 -56.89,-10.47 -85.88,-10.47l0 158.76z"/>
   <polygon class="fil0" points="884.98,643.61 910.16,643.61 910.16,566.97 992.28,566.97 992.28,643.61 1017.46,643.61 1017.46,481.56 992.28,481.56 992.28,545.07 910.16,545.07 910.16,481.56 884.98,481.56 "/>
   <path class="fil0" d="M1584.63 508.94c2.31,3.32 17.85,51.88 19.85,57.89l6.43 19.85 -50.37 0c0.12,-5.41 3.94,-14.55 5.61,-19.57l18.47 -58.17zm-66.79 134.68l25.18 0 8.28 -28.95c1.05,-3.93 0.93,-8.28 4.87,-8.28l60.22 0c3.81,0 6.59,11.54 8.62,17.66l6.71 19.57 26.28 0c-1.7,-7.3 -4.6,-13.11 -6.98,-20.39l-51.05 -141.66 -29.56 0c-1.52,6.5 -4.48,13.68 -6.44,19.84l-33.11 101.56c-2.13,6.41 -4.56,13 -6.43,19.85 -1.95,7.14 -4.93,13.77 -6.57,20.8z"/>
   <path class="fil0" d="M515.99 643.61l101.83 0 0 -21.9 -75.55 0 0 -53.65 50.37 0c5.23,0 3.29,-7.33 3.29,-20.8l-53.65 0 0 -43.8 75.55 0 0 -21.9 -101.83 0 0 162.05z"/>
   <path class="fil0" d="M743.74 560.4l-12.05 0 0 -58.03c18.8,0 59.13,-2.55 59.13,25.18l0 7.67c0,20.93 -25.38,25.18 -47.08,25.18zm-39.42 79.93c0,5.64 10.81,3.29 26.28,3.29l0 -61.31c15.85,0 40.33,-0.47 53.99,-6.23 40.82,-17.21 45.33,-94.5 -27.71,-94.5l-52.56 0 0 158.76z"/>
   <path class="fil0" d="M344.09 523.17c0,53.24 72.27,47.52 72.27,78.83 0,10.66 -7.19,18.2 -16.24,20.98 -11.09,3.41 -20.2,1.76 -30.43,-1.69 -9.67,-3.26 -13.98,-6.59 -16.83,-7.26 -0.7,8.49 -8.15,15.64 -8.76,22.99 6.25,1.46 9.26,4.12 18.6,6.58 35.07,9.25 76.66,-0.06 76.66,-44.91 0,-50.62 -70.07,-45.8 -70.07,-79.93 0,-6.17 3.3,-11.05 6.83,-13.97 17.98,-14.91 45.91,4.49 49.01,5.21 5.44,-23.34 14.95,-20.09 -8.33,-27.8 -36.7,-12.15 -72.7,4.62 -72.7,40.94z"/>
  </g>
 </g>
</svg>
