<?xml version="1.0" encoding="UTF-8"?>
<!DOCTYPE svg PUBLIC "-//W3C//DTD SVG 1.1//EN" "http://www.w3.org/Graphics/SVG/1.1/DTD/svg11.dtd">
<!-- Creator: CorelDRAW -->
<svg xmlns="http://www.w3.org/2000/svg" xml:space="preserve" width="2in" height="1in" version="1.1" style="shape-rendering:geometricPrecision; text-rendering:geometricPrecision; image-rendering:optimizeQuality; fill-rule:evenodd; clip-rule:evenodd"
viewBox="0 0 2000 1000"
 xmlns:xlink="http://www.w3.org/1999/xlink"
 xmlns:xodm="http://www.corel.com/coreldraw/odm/2003">
 <defs>
  <style type="text/css">
   <![CDATA[
    .fil0 {fill:#FF0066}
   ]]>
  </style>
 </defs>
 <g id="Layer_x0020_1">
  <metadata id="CorelCorpID_0Corel-Layer"/>
  <g id="_2293738110272">
   <path class="fil0" d="M1021.19 400.14c-0.02,66.94 -72.13,96.7 -115.97,52 -19.26,-19.64 -23.17,-56.33 -14.45,-80.27 8.46,-23.23 30.13,-44.23 59.87,-44.23l6.57 0c38.18,0 64,33.16 63.98,72.5zm-131.87 -97.35l-0.35 -25.79 -60.09 -0.3c-1.66,4.74 -1.09,8.67 -1.07,13.94 0.02,4.74 0,9.49 0.01,14.24l0.07 308.54 61.2 0.06 0.13 -115.54c18.23,14.2 31.78,26.26 58.26,30.24 27.49,4.13 53.97,-1.64 73.04,-13.35 116.41,-71.44 58.11,-265.44 -72.01,-242.72 -36.65,6.4 -51.67,27.19 -59.19,30.68z"/>
   <path class="fil0" d="M202.81 522.78l28.47 0.28 34.49 -63.29c6.01,-11.29 11.01,-20.33 17.19,-31.89l18.4 -31.78c5.05,5.86 28.11,112.65 33.94,126.49 6.35,0.69 26.19,1.46 29.1,-0.32 2.42,-1.48 108.92,-200.28 125.31,-229.19 1.22,-2.17 2.96,-5.78 4.27,-8.02l2.7 -5.78c0.22,-1.78 0.14,-1.33 -0.19,-2.23l-61.54 -0.4c-5.22,7.32 -45.65,83.12 -53.42,97.45l-13.42 24.89c-0.76,1.43 -1.46,3.07 -2.22,4.27 -1.16,1.82 -0.54,0.98 -1.5,1.99 -1.98,2.09 0.59,-0.09 -2.17,1.78 -7.05,-22.23 -29.88,-119.93 -34.71,-130.26l-22.86 -0.16c-14.01,28.39 -42.33,77.27 -59.65,109.76 -2.56,4.81 -8.89,18.45 -12.85,20.78l-8.36 -32.28c-2.82,-11.5 -5.57,-21.4 -8.44,-33.2 -5.12,-21.05 -10.84,-45 -17.13,-65.01l-57.44 0.01 22.83 91.43c2.92,11.29 5.53,20.43 8.05,31.41 9.6,41.85 22.45,82.52 31.17,123.23z"/>
   <path class="fil0" d="M582.51 373.23c1.87,-11.05 15.01,-25.09 23.61,-31.89 10.06,-7.94 24.41,-13.51 40.11,-13.8 36.68,-0.69 54.22,17.53 63.61,45.66l-127.34 0.03zm164.7 105.29l-52.54 -27.28c-5.46,3.3 -8.58,7 -14.34,10.3 -19.19,10.96 -38.71,14.4 -61.39,11.06 -28.16,-4.15 -47.91,-31.66 -44.82,-54.8l195.63 -0.2c8.83,-34.35 -3.37,-72.88 -17.8,-95.73 -49.65,-78.67 -180.64,-66.32 -225.11,28.91 -12.93,27.68 -18.19,66.53 -8.44,100.67 19.53,68.44 91.8,88.69 155.4,73.67 24.38,-5.76 63.92,-26.35 73.42,-46.59z"/>
   <path class="fil0" d="M1524.1 523l61.59 0.07c0.78,-19.02 -1.37,-103.81 0.8,-112.82 2.92,4.04 9.39,10.27 12.62,13.69 3.84,4.08 8.8,9.6 13.1,14.24 8.86,9.57 18.2,20.09 26.34,28.5l52.26 56.58 75.92 0.1 -58.56 -63.93c-8.89,-9.91 -20.01,-21.28 -29.58,-31.76 -4.47,-4.89 -27.71,-29.02 -29.43,-33.02l52.61 -59.11c9.09,-10.09 17.63,-19.35 26.49,-29.37 4.49,-5.08 23.98,-25.94 25.56,-29.37 -21.88,-0.71 -44.35,-0.11 -66.31,-0.19 -11.51,-0.04 -8.89,-2.04 -21.41,12.35l-63.61 71c-4.46,4.84 -12.24,14.96 -16.53,17.36l-0.13 -195.32 -61.68 -0.15 -0.05 341.13z"/>
   <path class="fil0" d="M1307.12 300.87l-0.29 -24.23 -55.17 -0.04c-0.98,0.03 -2.02,0.07 -2.99,0.22l-1.65 0.43c-4.23,1.04 -1.77,221.7 -1.72,245.52l61.54 0.31 0.23 -94.47c0.03,-27.93 -1.29,-53.93 10.65,-75.22 12.11,-21.59 37,-32.29 59.04,-23.45 21.34,8.56 25.32,33.01 25.65,60.33 0,0.04 -0.44,127.93 1.02,133.09l60.13 0c1.28,-10.43 0.33,-91.3 0.33,-108.99 -0,-34.42 3.72,-74.18 -9.39,-100.93 -19.24,-39.28 -71.71,-53.69 -114.13,-33.87 -13.59,6.35 -30.7,21.22 -33.26,21.3z"/>
   <path class="fil0" d="M1127.1 522.64l53.52 0.5c0.93,0 3.52,-0.01 4.32,-0.14l2.8 -0.81c3.35,-1.1 1.41,-57.37 1.4,-67.3 -0.02,-20.04 0.81,-175.95 -0.4,-177.75l-61.45 -0.47 -0.19 245.96z"/>
   <path class="fil0" d="M1150.05 176.42c-52.12,11.76 -33.48,88.42 16.47,78.24 19.19,-3.91 35.02,-22.97 30.19,-48.06 -3.59,-18.64 -23.45,-35.42 -46.65,-30.19z"/>
  </g>
 </g>
</svg>
